# xmcd CD database file generated by Grip 3.0.5
# 
# Track frame offsets:
#       150
#       16767
#       34542
#       52821
#       71113
#       90459
#       104230
#       124008
#       143473
#       166277
#       187191
# 
# Disc length: 2798 seconds
# 
# Revision: 5
# Processed by: cddbd v1.5PL3 Copyright (c) Steve Scherf et al.
# Submitted via: Grip 3.0.5
# 
DISCID=8d0aec0b
DTITLE=Petar Graso - Utorak
DYEAR=1999
DGENRE=Pop
TTITLE0='Ko nam brani
TTITLE1=Lakse mi je s njom
TTITLE2=Nek pisma ostane
TTITLE3='92
TTITLE4=Prije bi umra
TTITLE5=Ljubav jedne zene
TTITLE6=Utorak
TTITLE7=Nevista
TTITLE8=Kada krenu vlakovi (idi)
TTITLE9=Lomi me
TTITLE10=Kad ostarim
EXTD=
EXTT0=
EXTT1=
EXTT2=
EXTT3=
EXTT4=
EXTT5=
EXTT6=
EXTT7=
EXTT8=
EXTT9=
EXTT10=
PLAYORDER=
